<svg width="249" height="10" viewBox="0 0 249 10" fill="none" xmlns="http://www.w3.org/2000/svg">
<path d="M10.8698 8.78806V9.09839H8.84588L8.03633 7.2634H3.61076L2.80121 9.09839H0.777324V8.78806L4.70366 0.247264H6.94343L10.8698 8.78806ZM7.26725 5.50937L5.82354 2.21718L4.37984 5.50937H7.26725ZM27.7561 0.247264V9.09839H25.8132L20.7535 3.0942V9.09839H18.8106V0.247264H20.7535L25.8132 6.23796V0.247264H27.7561ZM38.5952 0.247264V9.09839H36.5578V0.247264H38.5952ZM59.169 9.09839H57.1587V2.99975L54.2982 9.09839H52.2608L49.4004 2.97276V9.09839H47.39V0.247264H50.183L53.2863 6.81814L56.3761 0.247264H59.169V9.09839ZM77.2126 8.78806V9.09839H75.1887L74.3792 7.2634H69.9536L69.1441 9.09839H67.1202V8.78806L71.0465 0.247264H73.2863L77.2126 8.78806ZM73.6101 5.50937L72.1664 2.21718L70.7227 5.50937H73.6101ZM83.2226 2.06876V0.247264H92.1682V2.06876H88.7141V9.09839H86.6767V2.06876H83.2226ZM102.145 0.247264V9.09839H100.107V0.247264H102.145ZM115.81 9.2603C114.749 9.2603 113.822 9.0759 113.031 8.7071C112.239 8.33831 111.623 7.8121 111.182 7.12847C110.751 6.44485 110.535 5.64879 110.535 4.74029V4.61886C110.535 3.71036 110.751 2.9143 111.182 2.23067C111.623 1.54705 112.239 1.02084 113.031 0.652041C113.831 0.274249 114.758 0.0853533 115.81 0.0853533C116.872 0.0853533 117.798 0.274249 118.59 0.652041C119.381 1.02084 119.993 1.54705 120.425 2.23067C120.857 2.9143 121.072 3.71036 121.072 4.61886V4.74029C121.072 5.64879 120.857 6.44485 120.425 7.12847C119.993 7.8121 119.381 8.33831 118.59 8.7071C117.798 9.0759 116.872 9.2603 115.81 9.2603ZM115.81 7.38483C116.854 7.38483 117.645 7.15996 118.185 6.7102C118.734 6.26045 119.008 5.61281 119.008 4.76727V4.60536C119.008 3.75983 118.729 3.10769 118.172 2.64894C117.623 2.19019 116.836 1.96082 115.81 1.96082C114.776 1.96082 113.98 2.19019 113.422 2.64894C112.873 3.10769 112.599 3.75983 112.599 4.60536V4.76727C112.599 5.61281 112.873 6.26045 113.422 6.7102C113.98 7.15996 114.776 7.38483 115.81 7.38483ZM138.464 0.247264V9.09839H136.521L131.461 3.0942V9.09839H129.518V0.247264H131.461L136.521 6.23796V0.247264H138.464ZM163.651 9.2603C162.193 9.2603 161.087 8.99944 160.331 8.47773C159.576 7.95602 159.198 7.19144 159.198 6.18399V6.04907H161.195V6.18399C161.195 6.61576 161.411 6.94408 161.843 7.16895C162.274 7.39383 162.904 7.50627 163.732 7.50627C164.469 7.50627 165.027 7.42981 165.405 7.27689C165.791 7.11498 165.985 6.88111 165.985 6.57528V6.48083C165.985 6.23796 165.877 6.05357 165.661 5.92764C165.445 5.79271 165.063 5.68477 164.514 5.60381L162.261 5.27999C160.318 4.99215 159.346 4.19159 159.346 2.87831V2.74339C159.346 1.90685 159.711 1.25471 160.439 0.786967C161.177 0.319224 162.207 0.0853533 163.529 0.0853533C164.932 0.0853533 166.003 0.337215 166.74 0.840937C167.478 1.34466 167.847 2.07326 167.847 3.02673V3.14817H165.85V3.02673C165.85 2.23517 165.076 1.83939 163.529 1.83939C162.837 1.83939 162.306 1.91135 161.937 2.05527C161.577 2.19919 161.397 2.41057 161.397 2.68942V2.79736C161.397 3.00425 161.496 3.16616 161.694 3.28309C161.901 3.40003 162.252 3.49448 162.747 3.56644L165.013 3.89026C166.048 4.04317 166.808 4.32202 167.294 4.7268C167.788 5.12258 168.036 5.67577 168.036 6.38638V6.52131C168.036 7.38483 167.653 8.05946 166.889 8.54519C166.124 9.02193 165.045 9.2603 163.651 9.2603ZM175.365 2.06876V0.247264H184.31V2.06876H180.856V9.09839H178.819V2.06876H175.365ZM196.594 9.2603C195.712 9.2603 194.934 9.08939 194.26 8.74758C193.594 8.39678 193.077 7.90655 192.708 7.27689C192.348 6.64724 192.168 5.91414 192.168 5.0776V0.247264H194.192V5.10459C194.192 5.83319 194.399 6.39538 194.813 6.79116C195.236 7.18694 195.829 7.38483 196.594 7.38483C197.368 7.38483 197.961 7.18694 198.375 6.79116C198.798 6.39538 199.009 5.83319 199.009 5.10459V0.247264H201.033V5.0776C201.033 5.91414 200.849 6.64724 200.48 7.27689C200.12 7.90655 199.603 8.39678 198.928 8.74758C198.263 9.08939 197.485 9.2603 196.594 9.2603ZM214.161 0.247264C215.816 0.247264 217.066 0.616061 217.912 1.35366C218.766 2.08225 219.194 3.16616 219.194 4.60536V4.75378C219.194 6.19299 218.771 7.27689 217.925 8.00549C217.08 8.73409 215.825 9.09839 214.161 9.09839H209.749V0.247264H214.161ZM214.161 7.27689C215.177 7.27689 215.924 7.0745 216.401 6.66973C216.886 6.26495 217.129 5.6353 217.129 4.78077V4.59187C217.129 3.74634 216.882 3.11668 216.387 2.70291C215.892 2.28014 215.146 2.06876 214.147 2.06876H211.773V7.27689H214.161ZM229.626 0.247264V9.09839H227.588V0.247264H229.626ZM243.291 9.2603C242.23 9.2603 241.303 9.0759 240.512 8.7071C239.72 8.33831 239.104 7.8121 238.663 7.12847C238.232 6.44485 238.016 5.64879 238.016 4.74029V4.61886C238.016 3.71036 238.232 2.9143 238.663 2.23067C239.104 1.54705 239.72 1.02084 240.512 0.652041C241.312 0.274249 242.239 0.0853533 243.291 0.0853533C244.353 0.0853533 245.279 0.274249 246.071 0.652041C246.862 1.02084 247.474 1.54705 247.906 2.23067C248.338 2.9143 248.553 3.71036 248.553 4.61886V4.74029C248.553 5.64879 248.338 6.44485 247.906 7.12847C247.474 7.8121 246.862 8.33831 246.071 8.7071C245.279 9.0759 244.353 9.2603 243.291 9.2603ZM243.291 7.38483C244.335 7.38483 245.126 7.15996 245.666 6.7102C246.215 6.26045 246.489 5.61281 246.489 4.76727V4.60536C246.489 3.75983 246.21 3.10769 245.653 2.64894C245.104 2.19019 244.317 1.96082 243.291 1.96082C242.257 1.96082 241.461 2.19019 240.903 2.64894C240.354 3.10769 240.08 3.75983 240.08 4.60536V4.76727C240.08 5.61281 240.354 6.26045 240.903 6.7102C241.461 7.15996 242.257 7.38483 243.291 7.38483Z" fill="white"/>
</svg>
