<svg width="248" height="11" viewBox="0 0 248 11" fill="none" xmlns="http://www.w3.org/2000/svg">
<path d="M10.2409 9.68967V10H8.21697L7.40742 8.16501H2.98186L2.1723 10H0.148418V9.68967L4.07476 1.14888H6.31452L10.2409 9.68967ZM6.63834 6.41098L5.19464 3.11879L3.75093 6.41098H6.63834ZM27.1272 1.14888V10H25.1843L20.1246 3.99581V10H18.1817V1.14888H20.1246L25.1843 7.13958V1.14888H27.1272ZM37.9663 1.14888V10H35.9289V1.14888H37.9663ZM58.5401 10H56.5297V3.90136L53.6693 10H51.6319L48.7715 3.87437V10H46.7611V1.14888H49.5541L52.6574 7.71976L55.7472 1.14888H58.5401V10ZM76.5837 9.68967V10H74.5598L73.7503 8.16501H69.3247L68.5152 10H66.4913V9.68967L70.4176 1.14888H72.6574L76.5837 9.68967ZM72.9812 6.41098L71.5375 3.11879L70.0938 6.41098H72.9812ZM82.5937 2.97037V1.14888H91.5393V2.97037H88.0852V10H86.0478V2.97037H82.5937ZM101.516 1.14888V10H99.4784V1.14888H101.516ZM115.181 10.1619C114.12 10.1619 113.194 9.97751 112.402 9.60872C111.61 9.23992 110.994 8.71371 110.553 8.03009C110.122 7.34646 109.906 6.5504 109.906 5.6419V5.52047C109.906 4.61197 110.122 3.81591 110.553 3.13228C110.994 2.44866 111.61 1.92245 112.402 1.55365C113.202 1.17586 114.129 0.986965 115.181 0.986965C116.243 0.986965 117.169 1.17586 117.961 1.55365C118.752 1.92245 119.364 2.44866 119.796 3.13228C120.228 3.81591 120.444 4.61197 120.444 5.52047V5.6419C120.444 6.5504 120.228 7.34646 119.796 8.03009C119.364 8.71371 118.752 9.23992 117.961 9.60872C117.169 9.97751 116.243 10.1619 115.181 10.1619ZM115.181 8.28644C116.225 8.28644 117.016 8.06157 117.556 7.61182C118.105 7.16206 118.379 6.51442 118.379 5.66889V5.50698C118.379 4.66144 118.1 4.0093 117.543 3.55055C116.994 3.09181 116.207 2.86243 115.181 2.86243C114.147 2.86243 113.351 3.09181 112.793 3.55055C112.245 4.0093 111.97 4.66144 111.97 5.50698V5.66889C111.97 6.51442 112.245 7.16206 112.793 7.61182C113.351 8.06157 114.147 8.28644 115.181 8.28644ZM137.835 1.14888V10H135.892L130.832 3.99581V10H128.889V1.14888H130.832L135.892 7.13958V1.14888H137.835ZM163.022 10.1619C161.565 10.1619 160.458 9.90105 159.703 9.37934C158.947 8.85763 158.569 8.09305 158.569 7.08561V6.95068H160.566V7.08561C160.566 7.51737 160.782 7.84569 161.214 8.07056C161.645 8.29544 162.275 8.40788 163.103 8.40788C163.84 8.40788 164.398 8.33142 164.776 8.1785C165.163 8.01659 165.356 7.78272 165.356 7.47689V7.38244C165.356 7.13958 165.248 6.95518 165.032 6.82925C164.816 6.69432 164.434 6.58638 163.885 6.50543L161.632 6.1816C159.689 5.89376 158.718 5.0932 158.718 3.77993V3.645C158.718 2.80846 159.082 2.15632 159.81 1.68858C160.548 1.22084 161.578 0.986965 162.9 0.986965C164.304 0.986965 165.374 1.23883 166.112 1.74255C166.849 2.24627 167.218 2.97487 167.218 3.92834V4.04978H165.221V3.92834C165.221 3.13678 164.447 2.741 162.9 2.741C162.208 2.741 161.677 2.81296 161.308 2.95688C160.948 3.1008 160.768 3.31218 160.768 3.59103V3.69897C160.768 3.90586 160.867 4.06777 161.065 4.1847C161.272 4.30164 161.623 4.39609 162.118 4.46805L164.384 4.79187C165.419 4.94478 166.179 5.22363 166.665 5.62841C167.159 6.02419 167.407 6.57739 167.407 7.28799V7.42292C167.407 8.28644 167.025 8.96107 166.26 9.4468C165.495 9.92354 164.416 10.1619 163.022 10.1619ZM174.736 2.97037V1.14888H183.681V2.97037H180.227V10H178.19V2.97037H174.736ZM195.965 10.1619C195.084 10.1619 194.306 9.991 193.631 9.64919C192.965 9.29839 192.448 8.80816 192.079 8.1785C191.719 7.54885 191.54 6.81575 191.54 5.97921V1.14888H193.563V6.0062C193.563 6.7348 193.77 7.29699 194.184 7.69277C194.607 8.08855 195.201 8.28644 195.965 8.28644C196.739 8.28644 197.332 8.08855 197.746 7.69277C198.169 7.29699 198.38 6.7348 198.38 6.0062V1.14888H200.404V5.97921C200.404 6.81575 200.22 7.54885 199.851 8.1785C199.491 8.80816 198.974 9.29839 198.299 9.64919C197.634 9.991 196.856 10.1619 195.965 10.1619ZM213.532 1.14888C215.187 1.14888 216.437 1.51767 217.283 2.25527C218.137 2.98386 218.565 4.06777 218.565 5.50698V5.65539C218.565 7.0946 218.142 8.1785 217.296 8.9071C216.451 9.6357 215.196 10 213.532 10H209.12V1.14888H213.532ZM213.532 8.1785C214.548 8.1785 215.295 7.97611 215.772 7.57134C216.257 7.16656 216.5 6.53691 216.5 5.68238V5.49348C216.5 4.64795 216.253 4.01829 215.758 3.60452C215.264 3.18176 214.517 2.97037 213.519 2.97037H211.144V8.1785H213.532ZM228.997 1.14888V10H226.959V1.14888H228.997ZM242.662 10.1619C241.601 10.1619 240.675 9.97751 239.883 9.60872C239.091 9.23992 238.475 8.71371 238.034 8.03009C237.603 7.34646 237.387 6.5504 237.387 5.6419V5.52047C237.387 4.61197 237.603 3.81591 238.034 3.13228C238.475 2.44866 239.091 1.92245 239.883 1.55365C240.684 1.17586 241.61 0.986965 242.662 0.986965C243.724 0.986965 244.65 1.17586 245.442 1.55365C246.233 1.92245 246.845 2.44866 247.277 3.13228C247.709 3.81591 247.925 4.61197 247.925 5.52047V5.6419C247.925 6.5504 247.709 7.34646 247.277 8.03009C246.845 8.71371 246.233 9.23992 245.442 9.60872C244.65 9.97751 243.724 10.1619 242.662 10.1619ZM242.662 8.28644C243.706 8.28644 244.497 8.06157 245.037 7.61182C245.586 7.16206 245.86 6.51442 245.86 5.66889V5.50698C245.86 4.66144 245.581 4.0093 245.024 3.55055C244.475 3.09181 243.688 2.86243 242.662 2.86243C241.628 2.86243 240.832 3.09181 240.274 3.55055C239.726 4.0093 239.451 4.66144 239.451 5.50698V5.66889C239.451 6.51442 239.726 7.16206 240.274 7.61182C240.832 8.06157 241.628 8.28644 242.662 8.28644Z" fill="white"/>
</svg>
