<svg width="124" height="59" viewBox="0 0 124 59" fill="none" xmlns="http://www.w3.org/2000/svg">
<path d="M101.886 18.1696C99.4866 18.1696 97.5669 18.1696 95.5786 18.1696C95.5786 16.3184 95.5786 14.7414 95.5786 13.0274C97.7726 12.9588 99.7609 12.8217 102.161 12.7531C102.161 8.8451 102.161 5.00562 102.161 0.960449C104.149 0.960449 105.794 0.960449 107.783 0.960449C107.783 4.73137 107.783 8.57085 107.783 12.7531C112.925 12.7531 117.793 12.7531 123.072 12.7531C123.072 14.4672 123.141 15.7699 123.072 17.0726C122.386 28.1111 121.701 39.1496 120.947 50.1881C120.878 51.2165 120.672 52.245 120.398 53.2048C119.644 56.2901 117.793 57.9356 114.639 58.1413C112.239 58.2784 109.84 58.1413 107.303 58.1413C106.617 56.3587 106 54.7132 105.246 52.7935C108.468 52.6563 111.485 52.5192 114.776 52.3135C116.49 40.8636 116.696 29.7566 117.381 18.3752C114.09 18.3752 111.005 18.3752 107.851 18.3752C106.411 32.4305 105.246 46.4857 95.6471 58.4841C94.1388 57.1129 92.8361 55.8787 91.4648 54.5761C99.1438 43.8804 101.269 31.5392 101.886 18.1696Z" fill="white"/>
<path d="M76.8581 24.6828C73.3615 24.6828 70.2076 24.6828 66.7795 24.6828C66.7795 22.8316 66.7795 21.1861 66.7795 19.335C75.9668 19.335 85.1542 19.335 94.5472 19.335C94.5472 20.9805 94.5472 22.6259 94.5472 24.5457C90.8448 24.5457 87.0739 24.5457 83.303 24.5457C80.4919 32.1561 77.7494 39.5608 74.8013 47.514C78.9836 46.1428 82.6859 44.8401 86.8682 43.4688C85.5655 41.0692 84.4 38.8752 83.0287 36.3384C84.5371 35.4471 86.0455 34.6243 88.0338 33.5273C90.4334 38.2581 92.696 42.7832 95.1642 47.5826C93.4502 48.6796 92.0789 49.6394 90.502 50.7364C90.0221 50.1194 89.5421 49.5023 88.9936 48.8853C82.2746 50.9421 75.4183 53.0676 68.4936 55.193C67.8079 53.2732 67.2594 51.7649 66.7109 50.1879C71.0304 42.2347 74.5956 33.9387 76.8581 24.6828Z" fill="white"/>
<path d="M21.457 24.7503C21.457 22.6249 21.457 21.048 21.457 19.1968C33.524 19.1968 45.5224 19.1968 57.7264 19.1968C57.7264 20.9108 57.7264 22.5563 57.7264 24.5446C54.9839 24.5446 52.2414 24.5446 49.019 24.5446C49.019 25.9159 49.019 27.0129 49.019 28.1099C49.019 35.6517 49.019 43.1935 49.019 50.7354C49.019 55.9461 47.0307 57.9344 41.82 58.0715C39.0089 58.1401 36.1293 58.0715 33.1126 58.0715C32.3584 56.0147 31.6728 54.232 30.9872 52.2437C34.9638 51.2153 38.9404 52.7237 42.7113 51.1467C42.7113 42.3022 42.7113 33.6634 42.7113 24.6818C35.6494 24.7503 28.7246 24.7503 21.457 24.7503Z" fill="white"/>
<path d="M9.25589 57.7977C9.25589 49.2275 9.25589 40.8629 9.25589 31.8127C6.78765 33.6639 4.79935 35.2408 2.60536 36.8863C1.64549 34.8294 0.891308 33.1154 0 31.1271C6.85622 26.1906 11.7241 19.6086 16.1807 12.2725C17.9633 13.0266 19.6773 13.7808 21.8713 14.6721C19.6773 18.1002 17.5519 21.2541 15.2894 24.8193C15.2894 35.515 15.2894 46.5535 15.2894 57.8663C13.2325 57.7977 11.3813 57.7977 9.25589 57.7977Z" fill="white"/>
<path d="M23.2461 7.88419C23.2461 5.96444 23.2461 4.31895 23.2461 2.46777C34.216 2.46777 45.0489 2.46777 56.0874 2.46777C56.0874 4.25039 56.0874 5.96444 56.0874 7.88419C45.186 7.88419 34.4217 7.88419 23.2461 7.88419Z" fill="white"/>
<path d="M2.81199 18.0319C1.78356 15.975 0.96081 14.3295 0.34375 13.0268C5.41735 8.63883 10.1481 4.5251 15.3589 0C16.593 0.548497 18.307 1.30268 20.501 2.33111C15.6331 8.77596 9.94246 13.8496 2.81199 18.0319Z" fill="white"/>
<path d="M92.2191 2.2627C92.2191 4.11387 92.2191 5.55368 92.2191 7.26773C84.4716 7.26773 76.8612 7.26773 68.9766 7.26773C68.9766 5.62224 68.9766 4.04531 68.9766 2.2627C76.7241 2.2627 84.2659 2.2627 92.2191 2.2627Z" fill="white"/>
</svg>
