<svg width="95" height="24" viewBox="0 0 95 24" fill="none" xmlns="http://www.w3.org/2000/svg">
<path d="M52.8564 20.9075L49.4039 11.1022L45.9513 20.9075H42.0175L47.7179 4.72295H51.0938L56.7943 20.9075H52.8564ZM28.4739 4.72295H39.6929V8.29347H32.4036V11.028H38.763V14.6025H32.4036V17.337H39.6929V20.9075H28.4739V4.72295ZM25.1952 17.3331V23.8296H21.2615V20.9075H3.93371V23.8296H0V17.3331H1.75057L6.18964 4.72295H23.4931V17.3331H25.1952ZM19.5635 17.3331V8.29347H8.86603L5.68427 17.3331H19.5635ZM91.0736 20.9075V12.0906L84.2411 20.9075H80.6389V4.72295H84.5728V13.5399L91.4052 4.72295H95.0074V20.9075H91.0736ZM92.1128 2.44156H83.8409V0H92.1128V2.44156ZM74.3805 20.9075L73.6084 18.716H62.8667L62.0945 20.9036H58.1607L63.8611 4.72295H72.6099L78.3103 20.9075H74.3805ZM72.3513 15.1416L69.9416 8.29347H66.5375L64.1278 15.1416H72.3513Z" fill="white"/>
</svg>
