<svg width="590" height="138" viewBox="0 0 590 138" fill="none" xmlns="http://www.w3.org/2000/svg">
<path d="M123.955 38.2967C128.723 38.9358 132.854 43.7283 133.172 48.5209L134.761 96.4464C135.079 101.558 137.94 105.393 141.436 105.393C144.932 105.393 148.746 109.546 149.7 114.339L152.56 128.716C153.514 133.509 150.335 137.662 145.25 137.662H76.9157C71.8303 137.662 68.0163 134.787 68.0163 130.953C68.0163 127.119 64.2023 124.563 59.117 124.563C54.0317 124.563 49.582 127.438 48.6285 131.272C47.675 134.787 42.9075 137.982 38.14 137.982H8.89933C3.814 137.982 0 133.828 0 129.036V114.978C0 109.546 2.54267 105.393 6.03883 105.393C9.535 105.393 13.6668 101.558 15.5738 97.0854L42.9075 35.1017C44.8145 30.6287 50.5355 27.4336 55.6208 28.0726L123.955 38.2967ZM66.1093 74.7202C63.8845 70.2471 61.3418 70.5666 60.3883 75.3592L55.6208 96.4464C54.3495 101.239 57.5278 105.393 62.6132 105.393H71.8303C76.9157 105.393 79.1405 101.558 76.9157 97.0854L66.1093 74.7202Z" fill="white"/>
<path d="M250.435 26.7964C255.52 26.7964 259.334 30.9499 259.334 35.7425L259.016 59.0662C259.016 64.1783 254.884 67.6928 250.117 66.7343L218.969 62.2613C214.202 61.6223 210.07 63.2198 210.07 66.0953C210.07 68.9709 214.202 70.5684 218.969 69.9294L222.783 69.2904C227.551 68.6514 232 71.8464 232.318 76.9585L232.636 82.0705C232.954 87.1826 229.458 91.9751 224.69 93.2531L218.969 94.8507C214.202 96.1287 210.388 98.3652 210.388 99.6432C210.388 100.921 214.202 101.56 219.287 100.602L240.9 96.1287C245.667 95.1702 249.163 98.3652 248.21 103.158L245.667 118.813C245.032 123.606 240.264 127.76 235.179 127.76H166.209C161.124 127.76 156.356 123.606 155.403 118.813L139.829 35.7425C138.875 30.9499 142.054 26.7964 147.139 26.7964H250.435Z" fill="white"/>
<path d="M353.119 26.7949C358.204 26.7949 362.018 30.9485 361.7 35.741L356.297 118.812C355.979 123.924 355.661 128.078 355.979 128.078C355.979 128.078 352.165 128.078 347.08 128.078H340.723C335.638 128.078 331.824 123.924 331.824 119.131L333.095 79.513C333.095 74.401 331.824 74.401 330.235 78.874L315.297 119.77C313.707 124.563 307.986 128.397 303.219 128.397H257.769C252.683 128.397 249.505 124.563 250.776 119.451L268.893 35.741C269.846 30.9485 274.932 26.7949 279.699 26.7949H353.119Z" fill="white"/>
<path d="M438.929 27.4337C444.014 27.1142 449.1 30.6288 450.689 35.4213L478.658 119.451C480.247 124.243 481.519 128.077 481.519 128.077C481.519 128.077 477.705 128.077 472.619 128.077H435.751C430.665 128.077 425.898 124.882 424.627 120.729C423.355 116.575 418.588 113.38 413.502 113.38H403.332C398.246 113.38 393.479 116.575 392.208 120.729C390.936 124.882 385.851 128.077 381.083 128.077H373.138C368.052 128.077 364.238 123.924 364.238 119.131L365.51 42.1309C365.51 37.0188 369.641 32.8653 374.727 32.2263L438.929 27.4337ZM410.642 79.8323C409.053 75.0398 406.828 75.0398 405.239 79.8323L403.967 84.3054C402.378 89.0979 404.285 92.932 408.099 92.932C411.913 92.932 413.82 89.0979 412.231 84.3054L410.642 79.8323Z" fill="white"/>
<path d="M465.298 35.7412C464.345 30.9486 467.523 26.7951 472.29 26.7951H482.143C487.229 26.7951 491.678 30.9486 491.996 35.7412L492.314 40.2142C492.632 45.3263 496.764 47.2433 500.895 44.6873L524.097 31.2681C528.547 28.7121 535.857 26.7951 540.942 26.7951H580.354C585.439 26.7951 589.253 30.9486 589.253 35.7412V119.132C589.253 124.244 585.121 128.078 580.354 128.078H579.082C573.997 128.078 569.865 123.924 569.865 119.132L568.594 67.0525C568.594 61.9405 567.005 61.9405 565.098 66.4135L544.121 119.771C542.214 124.563 536.811 128.078 531.725 128.078H494.539C489.453 128.078 484.686 124.244 483.732 119.132L465.298 35.7412ZM523.144 0.276258C527.911 -0.682253 533.632 0.915265 535.539 4.1103C537.446 7.30534 535.539 11.4589 531.407 14.0149L506.299 28.7121C502.167 31.2681 497.081 29.3511 495.174 24.878L491.36 15.6124C489.453 11.1394 491.996 6.34683 496.764 5.38832L523.144 0.276258Z" fill="white"/>
</svg>
